# Blender v2.78 (sub 0) OBJ File: ''
# www.blender.org
mtllib some.mtl
v 1.000000 -1.000000 -1.000000
v 1.000000 -1.000000 1.000000
v -1.000000 -1.000000 1.000000
v -1.000000 -1.000000 -1.000000
v 1.000000 1.000000 -0.999999
v 0.999999 1.000000 1.000001
v -1.000000 1.000000 1.000000
v -1.000000 1.000000 -1.000000
v -2.312356 -0.237093 1.000000
v -2.312355 -0.237093 -1.000001
v -2.312356 1.762907 0.999999
v -2.312356 1.762907 -1.000000
v 1.000000 -2.470669 2.469687
v -1.000000 -2.470669 2.469686
v 0.999999 -0.470669 2.469687
v -1.000001 -0.470669 2.469686
v -1.306729 -0.354242 -2.200990
v -1.306729 0.710862 -2.200989
v -2.005626 0.052046 -2.200990
v -2.005626 1.117150 -2.200990
vn 0.0000 -1.0000 0.0000
vn 0.0000 1.0000 0.0000
vn 1.0000 -0.0000 0.0000
vn 0.0000 -0.7069 -0.7073
vn -0.5026 -0.8645 -0.0000
vn 0.0000 0.0000 -1.0000
vn -1.0000 -0.0000 -0.0000
vn -0.0000 0.0000 1.0000
vn 0.5026 0.8645 0.0000
vn -0.9689 -0.0000 -0.2475
vn -0.0000 0.7069 0.7073
vn 0.4763 0.8194 -0.3189
vn -0.4763 -0.8194 -0.3189
vn 0.9689 0.0000 -0.2475
usemtl Material
s off
f 2//1 4//1 1//1
f 8//2 6//2 5//2
f 5//3 2//3 1//3
f 2//4 14//4 3//4
f 3//5 10//5 4//5
f 1//6 8//6 5//6
f 9//7 12//7 10//7
f 7//8 9//8 3//8
f 8//9 11//9 7//9
f 10//10 20//10 19//10
f 15//8 14//8 13//8
f 7//11 15//11 6//11
f 3//7 16//7 7//7
f 2//3 15//3 13//3
f 18//6 19//6 20//6
f 8//12 20//12 12//12
f 10//13 17//13 4//13
f 8//14 17//14 18//14
f 2//1 3//1 4//1
f 8//2 7//2 6//2
f 5//3 6//3 2//3
f 2//4 13//4 14//4
f 3//5 9//5 10//5
f 1//6 4//6 8//6
f 9//7 11//7 12//7
f 7//8 11//8 9//8
f 8//9 12//9 11//9
f 10//10 12//10 20//10
f 15//8 16//8 14//8
f 7//11 16//11 15//11
f 3//7 14//7 16//7
f 2//3 6//3 15//3
f 18//6 17//6 19//6
f 8//12 18//12 20//12
f 10//13 19//13 17//13
f 8//14 4//14 17//14
