# Blender v2.78 (sub 0) OBJ File: ''
# www.blender.org
mtllib thing.mtl
v -1.000000 -1.000000 1.000000
v -1.000000 -1.000000 -1.000000
v 1.000000 -1.000000 -1.000000
v 1.000000 -1.000000 1.000000
v -1.000000 1.000000 0.999999
v -0.999999 1.000000 -1.000001
v 1.000000 1.000000 -1.000000
v 1.000000 1.000000 1.000000
v -1.000000 1.848921 1.838280
v -0.999999 1.848921 -0.161720
v 1.000000 1.848921 1.838280
v 1.000000 1.848921 -0.161719
vn 0.0000 -1.0000 0.0000
vn 1.0000 -0.0000 0.0000
vn -1.0000 -0.0000 0.0000
vn 0.0000 -0.0000 -1.0000
vn -0.0000 0.0000 1.0000
vn 0.0000 1.0000 -0.0000
vn -0.0000 -0.7026 0.7116
vn 0.0000 0.7026 -0.7116
usemtl Material
s off
f 2//1 4//1 1//1
f 8//2 12//2 11//2
f 5//3 2//3 1//3
f 6//4 3//4 2//4
f 3//2 8//2 4//2
f 1//5 8//5 5//5
f 11//6 10//6 9//6
f 8//7 9//7 5//7
f 7//8 10//8 12//8
f 5//3 10//3 6//3
f 2//1 3//1 4//1
f 8//2 7//2 12//2
f 5//3 6//3 2//3
f 6//4 7//4 3//4
f 3//2 7//2 8//2
f 1//5 4//5 8//5
f 11//6 12//6 10//6
f 8//7 11//7 9//7
f 7//8 6//8 10//8
f 5//3 9//3 10//3
