# Blender v2.78 (sub 0) OBJ File: 'planeBig2.obj'
# www.blender.org
mtllib planeBig8.mtl
o Cube.001
v 4.000000 -3.247929 0.664737
v 4.000000 -3.305287 0.746652
v -4.000000 -3.305287 0.746652
v -4.000000 -3.247929 0.664737
v 4.000000 3.305287 5.253348
v -4.000000 3.305287 5.253348
v -4.000000 3.247929 5.335263
v 3.999996 3.247929 5.335263
vn 0.0000 -0.8192 -0.5736
vn 0.0000 0.8192 0.5736
vn 1.0000 -0.0000 0.0000
vn 0.0000 -0.5736 0.8192
vn -1.0000 0.0000 0.0000
vn 0.0000 0.5736 -0.8192
usemtl Material.001
s 1
f 1//1 2//1 3//1 4//1
f 5//2 6//2 7//2 8//2
f 1//3 5//3 8//3 2//3
f 2//4 8//4 7//4 3//4
f 3//5 7//5 6//5 4//5
f 5//6 1//6 4//6 6//6
